<svg class="svg-icon" style="width: 1em; height: 1em;vertical-align: middle;fill: currentColor;overflow: hidden;" viewBox="0 0 1024 1024" version="1.1" xmlns="http://www.w3.org/2000/svg"><path d="M204 1020c-67.2 0-132-15.2-187.2-44-4-2.4-7.2-6.4-8-11.2-3.2-13.6-4-28-4-41.6 0-110.4 89.6-200.8 200-200.8s200 90.4 200 200.8c0 13.6-1.6 28-4 41.6-0.8 4.8-4 8.8-8 11.2-56.8 28.8-121.6 44-188.8 44z m-165.6-68.8c48.8 24 106.4 36.8 165.6 36.8 59.2 0 116-12.8 165.6-36.8 1.6-8.8 2.4-18.4 2.4-28 0-92.8-75.2-168.8-168-168.8s-168 76-168 168.8c0 9.6 0.8 18.4 2.4 28z"  /><path d="M204 948c-4.8 0-8-3.2-8-8s3.2-8 8-8c39.2 0 76.8-6.4 111.2-18.4-4.8-58.4-52.8-103.2-111.2-103.2-4.8 0-8-3.2-8-8s3.2-8 8-8c68.8 0 124.8 54.4 128 124 0 3.2-1.6 6.4-4.8 8-39.2 14.4-80 21.6-123.2 21.6zM204 712c-62.4 0-113.6-51.2-113.6-113.6 0-62.4 50.4-113.6 113.6-113.6 62.4 0 113.6 51.2 113.6 113.6-0.8 62.4-51.2 113.6-113.6 113.6z m0-196c-44.8 0-81.6 36.8-81.6 81.6s36.8 81.6 81.6 81.6 81.6-36.8 81.6-81.6c-0.8-44.8-36.8-81.6-81.6-81.6zM820 1020c-67.2 0-132-15.2-187.2-44-4-2.4-7.2-6.4-8-11.2-3.2-13.6-4-28-4-41.6 0-110.4 89.6-200.8 200-200.8s200 90.4 200 200.8c0 13.6-1.6 28-4 41.6-0.8 4.8-4 8.8-8 11.2-56.8 28.8-121.6 44-188.8 44z m-164.8-68.8c48.8 24 106.4 36.8 165.6 36.8 59.2 0 116-12.8 165.6-36.8 1.6-8.8 2.4-18.4 2.4-28 0-92.8-75.2-168.8-168-168.8s-168 76-168 168.8c0 9.6 0.8 18.4 2.4 28z"  /><path d="M820 948c-4.8 0-8-3.2-8-8s3.2-8 8-8c39.2 0 76.8-6.4 111.2-18.4-4.8-58.4-52.8-103.2-111.2-103.2-4.8 0-8-3.2-8-8s3.2-8 8-8c68.8 0 124.8 54.4 128 124 0 3.2-1.6 6.4-4.8 8-38.4 14.4-79.2 21.6-123.2 21.6zM820 712c-62.4 0-113.6-51.2-113.6-113.6 0-62.4 50.4-113.6 113.6-113.6 62.4 0 113.6 51.2 113.6 113.6 0 62.4-51.2 113.6-113.6 113.6z m0-196c-44.8 0-81.6 36.8-81.6 81.6s36.8 81.6 81.6 81.6 81.6-36.8 81.6-81.6-36.8-81.6-81.6-81.6zM305.6 489.6c-2.4 0-4 0-6.4-1.6-5.6-2.4-9.6-8-9.6-14.4V350.4c-44.8-8-78.4-46.4-78.4-93.6V99.2C211.2 46.4 253.6 4 305.6 4h413.6c52 0 94.4 42.4 94.4 95.2v157.6c0 52.8-42.4 95.2-94.4 95.2H448.8L316.8 484.8c-3.2 3.2-7.2 4.8-11.2 4.8z m0-453.6c-34.4 0-62.4 28-62.4 63.2v157.6c0 35.2 28 63.2 62.4 63.2 8.8 0 16 7.2 16 16v98.4l109.6-109.6c3.2-3.2 7.2-4.8 11.2-4.8h276.8c34.4 0 62.4-28 62.4-63.2V99.2c0-34.4-28-63.2-62.4-63.2H305.6z"  /><path d="M340 224c-28.8 0-52.8-24-52.8-52.8s24-52.8 52.8-52.8 52.8 24 52.8 52.8-23.2 52.8-52.8 52.8z m0-90.4c-20 0-36.8 16.8-36.8 36.8S320 208 340 208s36.8-16.8 36.8-36.8-16-37.6-36.8-37.6zM512 224c-28.8 0-52.8-24-52.8-52.8s24-52.8 52.8-52.8c28.8 0 52.8 24 52.8 52.8S540.8 224 512 224z m0-90.4c-20 0-36.8 16.8-36.8 36.8S492 208 512 208s36.8-16.8 36.8-36.8-16.8-37.6-36.8-37.6zM684 224c-28.8 0-52.8-24-52.8-52.8s24-52.8 52.8-52.8 52.8 24 52.8 52.8-24 52.8-52.8 52.8z m0-90.4c-20 0-36.8 16.8-36.8 36.8s16.8 36.8 36.8 36.8 36.8-16.8 36.8-36.8-16.8-36.8-36.8-36.8z"  /></svg>